<svg width="134" height="193" viewBox="0 0 134 193" fill="none" xmlns="http://www.w3.org/2000/svg">
<path d="M13.9329 97.2655L13.968 97.1376L13.9351 97.009C4.88971 61.7277 0.713398 37.4239 1.05244 21.997C1.22207 14.2788 2.52165 8.8585 4.83977 5.39905C7.1302 1.98091 10.4504 0.424921 14.8499 0.502772C19.2858 0.581268 24.8063 2.32448 31.398 5.53821C37.9806 8.74751 45.5859 13.4002 54.1796 19.2482C70.5144 30.3641 90.3706 45.7639 113.492 63.6961C114.69 64.6249 115.896 65.5604 117.111 66.5026C128.378 78.7511 134.628 88.7151 132.543 100.605C131.496 106.576 128.34 113.086 122.559 120.659C116.781 128.228 108.402 136.833 96.9448 146.995C73.4699 164.579 54.5746 177.306 39.9228 184.743C32.5947 188.463 26.3517 190.847 21.1441 191.861C15.9352 192.875 11.8134 192.509 8.67748 190.795C5.55166 189.086 3.31798 185.99 1.9809 181.355C0.641489 176.711 0.214391 170.56 0.684467 162.82C1.62452 147.343 6.14208 125.651 13.9329 97.2655Z" fill="#AED6FB" stroke="#AED6FB"/>
</svg>
